<?xml version="1.0" ?><svg data-name="Layer 2" id="Layer_2" viewBox="0 0 16 16" xmlns="http://www.w3.org/2000/svg"><title/><path d="M9.6,3.1H6.4a.5.5,0,0,0-.5.5V6.3H4.8a.5.5,0,0,0-.3535.8535l3.2,3.2a.5.5,0,0,0,.707,0l3.2-3.2A.5.5,0,0,0,11.2,6.3H10.1V3.6A.5.5,0,0,0,9.6,3.1ZM8,9.293,6.0068,7.3H6.4a.5.5,0,0,0,.5-.5V4.1H9.1V6.8a.5.5,0,0,0,.5.5h.3936Z"/><path d="M8,12.9a.4981.4981,0,0,0,.3535-.1465l4-4a.5.5,0,0,0-.707-.707L8,11.6934,4.3535,8.0469a.5.5,0,0,0-.707.707l4,4A.4981.4981,0,0,0,8,12.9Z"/><path d="M15,15.5a.5.5,0,0,0,.5-.5V1A.5.5,0,0,0,15,.5H1A.5.5,0,0,0,.5,1V15a.5.5,0,0,0,.5.5ZM1.5,1.5h13v13H1.5Z"/></svg>